REM DIRINDEX 1\3,1\2\4,1\2\5,1\2\6
REM DIRNAME folder01,folder02,folder03,folder04,folder05,folder06
TITLE ""
FILE "142.mp3" MP3
  TRACK 01 AUDIO
    TITLE "4:cjc137_6145"
    INDEX 01 00:00:00
  TRACK 02 AUDIO
    TITLE "0:"
    INDEX 01 00:01:17
  TRACK 03 AUDIO
    TITLE "6:cjc137_6146"
    INDEX 01 00:01:24
  TRACK 04 AUDIO
    TITLE "0:"
    INDEX 01 00:02:32
  TRACK 05 AUDIO
    TITLE "5:cjc137_6147"
    INDEX 01 00:02:40
  TRACK 06 AUDIO
    TITLE "0:"
    INDEX 01 00:03:55
  TRACK 07 AUDIO
    TITLE "4:cjc137_6148"
    INDEX 01 00:04:66
  TRACK 08 AUDIO
    TITLE "0:"
    INDEX 01 00:06:04
  TRACK 09 AUDIO
    TITLE "6:cjc137_6149"
    INDEX 01 00:06:08
  TRACK 10 AUDIO
    TITLE "0:"
    INDEX 01 00:07:25
  TRACK 11 AUDIO
    TITLE "5:cjc137_6150"
    INDEX 01 00:07:31
  TRACK 12 AUDIO
    TITLE "0:"
    INDEX 01 00:08:44
  TRACK 13 AUDIO
    TITLE "4:cjc137_6151"
    INDEX 01 00:09:55
  TRACK 14 AUDIO
    TITLE "0:"
    INDEX 01 00:10:53
  TRACK 15 AUDIO
    TITLE "6:cjc137_6152"
    INDEX 01 00:10:61
  TRACK 16 AUDIO
    TITLE "0:"
    INDEX 01 00:12:34
  TRACK 17 AUDIO
    TITLE "5:cjc137_6153"
    INDEX 01 00:12:44
  TRACK 18 AUDIO
    TITLE "0:"
    INDEX 01 00:13:43
  TRACK 19 AUDIO
    TITLE "4:cjc137_6154"
    INDEX 01 00:14:51
  TRACK 20 AUDIO
    TITLE "0:"
    INDEX 01 00:15:52
  TRACK 21 AUDIO
    TITLE "6:cjc137_6155"
    INDEX 01 00:15:60
  TRACK 22 AUDIO
    TITLE "0:"
    INDEX 01 00:17:08
  TRACK 23 AUDIO
    TITLE "5:cjc137_6156"
    INDEX 01 00:17:12
  TRACK 24 AUDIO
    TITLE "0:"
    INDEX 01 00:18:13
  TRACK 25 AUDIO
    TITLE "4:cjc137_6157"
    INDEX 01 00:19:22
  TRACK 26 AUDIO
    TITLE "0:"
    INDEX 01 00:20:20
  TRACK 27 AUDIO
    TITLE "6:cjc137_6158"
    INDEX 01 00:20:22
  TRACK 28 AUDIO
    TITLE "0:"
    INDEX 01 00:21:31
  TRACK 29 AUDIO
    TITLE "5:cjc137_6159"
    INDEX 01 00:21:37
  TRACK 30 AUDIO
    TITLE "0:"
    INDEX 01 00:22:34
  TRACK 31 AUDIO
    TITLE "4:cjc137_6160"
    INDEX 01 00:23:40
  TRACK 32 AUDIO
    TITLE "0:"
    INDEX 01 00:24:31
  TRACK 33 AUDIO
    TITLE "6:cjc137_6161"
    INDEX 01 00:24:35
  TRACK 34 AUDIO
    TITLE "0:"
    INDEX 01 00:25:45
  TRACK 35 AUDIO
    TITLE "5:cjc137_6162"
    INDEX 01 00:25:48
  TRACK 36 AUDIO
    TITLE "0:"
    INDEX 01 00:26:38
  TRACK 37 AUDIO
    TITLE "4:cjc137_6163"
    INDEX 01 00:27:45
  TRACK 38 AUDIO
    TITLE "0:"
    INDEX 01 00:28:47
  TRACK 39 AUDIO
    TITLE "6:cjc137_6164"
    INDEX 01 00:28:55
  TRACK 40 AUDIO
    TITLE "0:"
    INDEX 01 00:29:62
  TRACK 41 AUDIO
    TITLE "5:cjc137_6165"
    INDEX 01 00:29:68
  TRACK 42 AUDIO
    TITLE "0:"
    INDEX 01 00:30:71
  TRACK 43 AUDIO
    TITLE "4:cjc137_6166"
    INDEX 01 00:32:03
  TRACK 44 AUDIO
    TITLE "0:"
    INDEX 01 00:33:11
  TRACK 45 AUDIO
    TITLE "6:cjc137_6167"
    INDEX 01 00:33:17
  TRACK 46 AUDIO
    TITLE "0:"
    INDEX 01 00:34:34
  TRACK 47 AUDIO
    TITLE "5:cjc137_6168"
    INDEX 01 00:34:42
  TRACK 48 AUDIO
    TITLE "0:"
    INDEX 01 00:35:47
  TRACK 49 AUDIO
    TITLE "4:cjc137_6169"
    INDEX 01 00:36:58
  TRACK 50 AUDIO
    TITLE "0:"
    INDEX 01 00:37:61
  TRACK 51 AUDIO
    TITLE "6:cjc137_6170"
    INDEX 01 00:38:00
  TRACK 52 AUDIO
    TITLE "0:"
    INDEX 01 00:38:67
  TRACK 53 AUDIO
    TITLE "5:cjc137_6171"
    INDEX 01 00:39:00
  TRACK 54 AUDIO
    TITLE "0:"
    INDEX 01 00:40:01
  TRACK 55 AUDIO
    TITLE "4:cjc137_6172"
    INDEX 01 00:41:18
  TRACK 56 AUDIO
    TITLE "0:"
    INDEX 01 00:42:19
  TRACK 57 AUDIO
    TITLE "6:cjc137_6173"
    INDEX 01 00:42:25
  TRACK 58 AUDIO
    TITLE "0:"
    INDEX 01 00:43:44
  TRACK 59 AUDIO
    TITLE "5:cjc137_6174"
    INDEX 01 00:43:48
  TRACK 60 AUDIO
    TITLE "0:"
    INDEX 01 00:44:50
  TRACK 61 AUDIO
    TITLE "4:cjc137_6175"
    INDEX 01 00:45:57
  TRACK 62 AUDIO
    TITLE "0:"
    INDEX 01 00:46:70
  TRACK 63 AUDIO
    TITLE "6:cjc137_6176"
    INDEX 01 00:47:01
  TRACK 64 AUDIO
    TITLE "0:"
    INDEX 01 00:48:38
  TRACK 65 AUDIO
    TITLE "5:cjc137_6177"
    INDEX 01 00:48:42
  TRACK 66 AUDIO
    TITLE "0:"
    INDEX 01 00:49:53
  TRACK 67 AUDIO
    TITLE "4:cjc137_6178"
    INDEX 01 00:50:60
  TRACK 68 AUDIO
    TITLE "0:"
    INDEX 01 00:52:00
  TRACK 69 AUDIO
    TITLE "6:cjc137_6179"
    INDEX 01 00:52:02
  TRACK 70 AUDIO
    TITLE "0:"
    INDEX 01 00:53:21
  TRACK 71 AUDIO
    TITLE "5:cjc137_6180"
    INDEX 01 00:53:27
  TRACK 72 AUDIO
    TITLE "0:"
    INDEX 01 00:54:42
  TRACK 73 AUDIO
    TITLE "4:cjc137_6181"
    INDEX 01 00:55:50
  TRACK 74 AUDIO
    TITLE "0:"
    INDEX 01 00:56:47
  TRACK 75 AUDIO
    TITLE "6:cjc137_6182"
    INDEX 01 00:56:69
  TRACK 76 AUDIO
    TITLE "0:"
    INDEX 01 00:57:74
  TRACK 77 AUDIO
    TITLE "5:cjc137_6183"
    INDEX 01 00:58:07
  TRACK 78 AUDIO
    TITLE "0:"
    INDEX 01 00:59:08
  TRACK 79 AUDIO
    TITLE "4:cjc137_6184"
    INDEX 01 01:00:29
  TRACK 80 AUDIO
    TITLE "0:"
    INDEX 01 01:01:29
  TRACK 81 AUDIO
    TITLE "6:cjc137_6185"
    INDEX 01 01:01:36
  TRACK 82 AUDIO
    TITLE "0:"
    INDEX 01 01:02:38
  TRACK 83 AUDIO
    TITLE "5:cjc137_6186"
    INDEX 01 01:02:44
  TRACK 84 AUDIO
    TITLE "0:"
    INDEX 01 01:03:47
  TRACK 85 AUDIO
    TITLE "4:cjc137_6187"
    INDEX 01 01:04:52
  TRACK 86 AUDIO
    TITLE "0:"
    INDEX 01 01:05:71
  TRACK 87 AUDIO
    TITLE "6:cjc137_6188"
    INDEX 01 01:06:02
  TRACK 88 AUDIO
    TITLE "0:"
    INDEX 01 01:07:02
  TRACK 89 AUDIO
    TITLE "5:cjc137_6189"
    INDEX 01 01:07:06
  TRACK 90 AUDIO
    TITLE "0:"
    INDEX 01 01:08:23
  TRACK 91 AUDIO
    TITLE "4:cjc137_6190"
    INDEX 01 01:09:38
  TRACK 92 AUDIO
    TITLE "0:"
    INDEX 01 01:10:53
  TRACK 93 AUDIO
    TITLE "6:cjc137_6191"
    INDEX 01 01:10:63
  TRACK 94 AUDIO
    TITLE "0:"
    INDEX 01 01:12:11
  TRACK 95 AUDIO
    TITLE "5:cjc137_6192"
    INDEX 01 01:12:26
  TRACK 96 AUDIO
    TITLE "0:"
    INDEX 01 01:13:45
  TRACK 97 AUDIO
    TITLE "4:cjc137_6193"
    INDEX 01 01:14:53
  TRACK 98 AUDIO
    TITLE "0:"
    INDEX 01 01:15:62
  TRACK 99 AUDIO
    TITLE "6:cjc137_6194"
    INDEX 01 01:15:70
  TRACK 100 AUDIO
    TITLE "0:"
    INDEX 01 01:16:71
  TRACK 101 AUDIO
    TITLE "5:cjc137_6195"
    INDEX 01 01:17:02
  TRACK 102 AUDIO
    TITLE "0:"
    INDEX 01 01:18:13
  TRACK 103 AUDIO
    TITLE "4:cjc137_6196"
    INDEX 01 01:19:21
  TRACK 104 AUDIO
    TITLE "0:"
    INDEX 01 01:20:40
  TRACK 105 AUDIO
    TITLE "6:cjc137_6197"
    INDEX 01 01:20:49
  TRACK 106 AUDIO
    TITLE "0:"
    INDEX 01 01:22:42
  TRACK 107 AUDIO
    TITLE "5:cjc137_6198"
    INDEX 01 01:22:48
  TRACK 108 AUDIO
    TITLE "0:"
    INDEX 01 01:23:69
  TRACK 109 AUDIO
    TITLE "4:cjc137_6199"
    INDEX 01 01:25:02
  TRACK 110 AUDIO
    TITLE "0:"
    INDEX 01 01:26:40
  TRACK 111 AUDIO
    TITLE "6:cjc137_6200"
    INDEX 01 01:26:48
  TRACK 112 AUDIO
    TITLE "0:"
    INDEX 01 01:27:67
  TRACK 113 AUDIO
    TITLE "5:cjc137_6201"
    INDEX 01 01:27:73
  TRACK 114 AUDIO
    TITLE "0:"
    INDEX 01 01:29:35
  TRACK 115 AUDIO
    TITLE "4:cjc137_6202"
    INDEX 01 01:30:46
  TRACK 116 AUDIO
    TITLE "0:"
    INDEX 01 01:32:02
  TRACK 117 AUDIO
    TITLE "6:cjc137_6203"
    INDEX 01 01:32:08
  TRACK 118 AUDIO
    TITLE "0:"
    INDEX 01 01:33:29
  TRACK 119 AUDIO
    TITLE "5:cjc137_6204"
    INDEX 01 01:33:33
  TRACK 120 AUDIO
    TITLE "0:"
    INDEX 01 01:34:63
